# xmcd CD database file
#
# Track frame offsets:
#	150
#	2565
#	26252
#	44847
#	61660
#	77827
#	95847
#	112112
#	129587
#	147125
#	163727
#	182355
#	200452
#	216270
#
# Disc length: 3121 seconds
#
# Revision: 3
# Processed by: cddbd v1.5.1PL2 Copyright (c) Steve Scherf et al.
# Submitted via: jetAudio 5
#
DISCID=c00c2f0e
DTITLE=Jang Nara - My Story
DYEAR=2004
DGENRE=Ballad
TTITLE0=Intro
TTITLE1=Snail
TTITLE2=Winter Diary
TTITLE3=I Love School
TTITLE4=Always
TTITLE5=I'm Okay Now
TTITLE6=Just in Case
TTITLE7=The Writing I Serve
TTITLE8=Lovers
TTITLE9=A Good Day For Love
TTITLE10=Winter Diary [Bossa Nova version]
TTITLE11=Me
TTITLE12=Make It Right
TTITLE13=Blue Love
EXTD=나.영.클의 나라랑입니다.이 음원은 외부의 유출을 금지합니다.
EXTT0=
EXTT1=
EXTT2=
EXTT3=
EXTT4=
EXTT5=
EXTT6=
EXTT7=
EXTT8=
EXTT9=
EXTT10=
EXTT11=
EXTT12=
EXTT13=
PLAYORDER=
